<?xml version="1.0" encoding="UTF-8"?>
<svg version="1.1" xmlns="http://www.w3.org/2000/svg" width="626" height="626">
<path d="M0 0 C206.58 0 413.16 0 626 0 C626 206.58 626 413.16 626 626 C419.42 626 212.84 626 0 626 C0 419.42 0 212.84 0 0 Z " fill="#FEFEFE" transform="translate(0,0)"/>
<path d="M0 0 C0.99604248 0.27287842 0.99604248 0.27287842 2.01220703 0.55126953 C12.30119148 3.41885947 21.64606559 7.94651398 31 13 C31.90363281 13.48210937 32.80726563 13.96421875 33.73828125 14.4609375 C63.95547327 31.57247341 85.01341173 61.60882438 94.3125 94.6875 C100.83070662 121.37577947 100.62973494 152.66221246 89 178 C88.5565625 179.06605469 88.113125 180.13210938 87.65625 181.23046875 C85.8402495 185.47614483 83.72124828 189.54536217 81.5625 193.625 C80.98918945 194.73101562 80.98918945 194.73101562 80.40429688 195.859375 C78.26064526 199.9210307 76.02832314 203.50949543 73 207 C74.66463038 211.28642324 77.79075837 214.08617217 81 217.25 C81.81984375 218.08144531 81.81984375 218.08144531 82.65625 218.9296875 C85.32600768 221.99215775 85.32600768 221.99215775 89 223 C89.7425 222.030625 90.485 221.06125 91.25 220.0625 C93.14270869 217.74918938 94.05609544 216.97439121 96.875 215.6875 C101.1835812 216.11835812 102.69209368 218.17889872 105.484375 221.3359375 C106.91541427 223.10775838 106.91541427 223.10775838 109 224 C108.98839844 223.14535156 108.97679687 222.29070312 108.96484375 221.41015625 C108.95130859 219.75306641 108.95130859 219.75306641 108.9375 218.0625 C108.92589844 216.96035156 108.91429687 215.85820312 108.90234375 214.72265625 C109 212 109 212 110 211 C113.63953196 210.72929101 117.27243524 210.55354483 120.91796875 210.39453125 C124.77473093 210.57300905 124.77473093 210.57300905 128 209 C128.10756847 207.2375228 128.14625675 205.47079768 128.15771484 203.70507812 C128.16797699 202.57299927 128.17823914 201.44092041 128.18881226 200.27453613 C128.19611359 199.03925171 128.20341492 197.80396729 128.2109375 196.53125 C128.23902334 193.93228555 128.2676879 191.33332731 128.296875 188.734375 C128.33918855 184.62438379 128.37593685 180.51442864 128.40136719 176.40429688 C128.42651539 172.44640242 128.4749737 168.48892891 128.5234375 164.53125 C128.52669037 163.31215942 128.52994324 162.09306885 128.53329468 160.83703613 C128.66364713 151.73090693 129.86277561 144.25774425 135.375 136.8125 C135.98214844 135.98621094 136.58929688 135.15992188 137.21484375 134.30859375 C139.40854203 131.47166665 141.64857758 128.70769855 144 126 C143.13375 125.38125 142.2675 124.7625 141.375 124.125 C133.78311357 117.75355867 129.63385842 107.68537306 128.71220398 97.96458435 C128.59329806 94.6000532 128.55892874 91.24552384 128.55859375 87.87890625 C128.53878197 86.04633522 128.53878197 86.04633522 128.51856995 84.17674255 C128.47792749 80.3053043 128.4560567 76.43410244 128.4375 72.5625 C128.41371579 68.66597415 128.3856682 64.7696708 128.34571838 60.87327576 C128.32134565 58.45608808 128.30649994 56.03878179 128.30210876 53.62147522 C128.28682884 51.98848732 128.28682884 51.98848732 128.27124023 50.32250977 C128.26696518 49.36449966 128.26269012 48.40648956 128.25828552 47.41944885 C128.16116044 44.7398936 128.16116044 44.7398936 126 42 C123.04839957 41.61411212 120.33317348 41.39721507 117.375 41.3125 C114.61125 41.209375 111.8475 41.10625 109 41 C109 35.39 109 29.78 109 24 C112.50132114 23.86417289 115.99730117 23.7654863 119.5 23.6875 C120.48226563 23.64560547 121.46453125 23.60371094 122.4765625 23.56054688 C130.57423773 23.42558562 135.0218387 25.51334898 141.0234375 30.7734375 C141.46945312 31.30195313 141.91546875 31.83046875 142.375 32.375 C143.06722656 33.16003906 143.06722656 33.16003906 143.7734375 33.9609375 C147.83477648 40.7125902 147.26497865 48.18493262 147.23828125 55.80078125 C147.25370036 58.33008349 147.27000395 60.85938047 147.28710938 63.38867188 C147.30354899 67.35159987 147.31249707 71.31414035 147.30541992 75.27709961 C147.30279077 79.11876642 147.33098516 82.9592703 147.36328125 86.80078125 C147.34797112 88.56063103 147.34797112 88.56063103 147.33235168 90.35603333 C147.42109471 97.87818203 148.60580429 103.76482666 153 110 C158.64184694 115.36628603 164.14475711 116.1707433 171.6015625 116.71875 C174 117 174 117 175 118 C175.09986975 120.84335048 175.13877881 123.65697163 175.125 126.5 C175.12886719 127.29792969 175.13273437 128.09585938 175.13671875 128.91796875 C175.12660767 134.87339233 175.12660767 134.87339233 174 136 C172.33468883 136.10705572 170.66748827 136.18515323 169 136.25 C163.08162138 136.75025307 158.69704847 138.3402164 154 142 C151.52351923 144.92043703 151.52351923 144.92043703 150 148 C149.64304047 148.60435379 149.28608093 149.20870758 148.91830444 149.83137512 C147.76498888 152.55499129 147.74837126 154.67950086 147.74462891 157.63549805 C147.73766998 158.76735031 147.73071106 159.89920258 147.72354126 161.06535339 C147.72503677 162.89505424 147.72503677 162.89505424 147.7265625 164.76171875 C147.70626692 167.35091573 147.68541601 169.9401084 147.6640625 172.52929688 C147.63937846 176.60636154 147.62416188 180.68336298 147.61914062 184.76049805 C147.61312269 188.69863529 147.57576974 192.63624684 147.5390625 196.57421875 C147.54410797 197.78389816 147.54915344 198.99357758 147.55435181 200.23991394 C147.44321772 209.8558819 145.3584288 217.42516631 138.671875 224.55859375 C131.93279256 230.36869052 123.40755814 229.31882594 115 229 C115 229.99 115 230.98 115 232 C115.56805359 232.24240921 116.13610718 232.48481842 116.72137451 232.73457336 C119.44023711 234.24448413 121.26873372 236.03624965 123.45800781 238.24682617 C124.33281799 239.12501511 125.20762817 240.00320404 126.10894775 240.90800476 C127.05703228 241.86963434 128.00509069 242.83128966 128.953125 243.79296875 C129.93664029 244.78276285 130.92067811 245.77203797 131.9052124 246.76081848 C134.49729697 249.36619572 137.08376597 251.97707066 139.66864014 254.58959961 C143.78971214 258.75377673 147.91736256 262.91140215 152.04854584 267.06554604 C153.47992998 268.50702207 154.90777159 269.951936 156.33526611 271.39726257 C160.85810409 275.95338615 165.42110231 280.3804026 170.30654907 284.54760742 C180.03685429 292.89282891 191.13283828 303.18412843 192.21484375 316.6796875 C192.5609028 327.55978395 190.13368295 336.61310248 183 345 C176.11937074 351.40513862 169.04079884 354.57071077 159.6875 354.4375 C158.56710327 354.42614014 158.56710327 354.42614014 157.42407227 354.41455078 C144.13751466 354.01991482 135.24448219 346.59475199 126.25195312 337.46313477 C125.62965317 336.83952057 125.00735321 336.21590637 124.36619568 335.57339478 C122.3332152 333.53398314 120.30732053 331.48768062 118.28125 329.44140625 C116.85504776 328.00892221 115.42832153 326.57695969 114.00109863 325.14549255 C110.25826344 321.38941054 106.52104626 317.62779335 102.78546143 313.86450195 C96.80905325 307.84484083 90.8258728 301.83193084 84.83934021 295.82234001 C82.76093025 293.73379224 80.6860158 291.64181921 78.6114502 289.54945374 C70.2748983 281.13727031 70.2748983 281.13727031 61.45837402 273.23524475 C59.49464164 271.57196079 57.72456803 269.78320259 56 267.875 C55.4225 267.25367188 54.845 266.63234375 54.25 265.9921875 C52.62866525 263.40818524 52.51160297 262.00082404 53 259 C54.53125 256.98046875 54.53125 256.98046875 56.5 255.1875 C57.1496875 254.58292969 57.799375 253.97835938 58.46875 253.35546875 C58.9740625 252.90816406 59.479375 252.46085937 60 252 C58.37849996 248.02685079 55.64417127 245.20699562 52.6875 242.1875 C52.21376953 241.67251953 51.74003906 241.15753906 51.25195312 240.62695312 C49.67906757 238.95102352 49.67906757 238.95102352 47 237 C42.9037648 236.9620719 40.14869181 238.95515895 36.8125 241.1875 C35.84570312 241.81785156 34.87890625 242.44820312 33.8828125 243.09765625 C32.10562799 244.27040538 30.32938158 245.4445793 28.5546875 246.62109375 C21.74074912 250.950081 14.71033267 253.6869002 7 256 C6.15083008 256.26377441 5.30166016 256.52754883 4.42675781 256.79931641 C-28.45144852 266.74551968 -64.56339976 264.09931049 -95.125 248.125 C-102.88060929 243.9491479 -110.21907385 239.64902503 -117 234 C-117.53351074 233.57283691 -118.06702148 233.14567383 -118.61669922 232.70556641 C-144.85527899 211.69571558 -163.87871393 179.89483745 -167.75390625 146.13671875 C-170.66107753 105.02101063 -160.65558596 70.3694841 -133.73828125 39 C-128.4156063 33.07880714 -122.83482635 27.80836635 -116.4375 23.0625 C-115.74422607 22.54671387 -115.05095215 22.03092773 -114.33666992 21.49951172 C-107.83613928 16.74584582 -101.14627621 12.71539419 -94 9 C-93.00226563 8.46890625 -92.00453125 7.9378125 -90.9765625 7.390625 C-63.73438545 -6.19544787 -29.17500433 -8.43572827 0 0 Z " fill="#F0F0F1" transform="translate(338,138)"/>
<path d="M0 0 C0.99604248 0.27287842 0.99604248 0.27287842 2.01220703 0.55126953 C12.30119148 3.41885947 21.64606559 7.94651398 31 13 C31.90363281 13.48210937 32.80726563 13.96421875 33.73828125 14.4609375 C63.95547327 31.57247341 85.01341173 61.60882438 94.3125 94.6875 C100.83070662 121.37577947 100.62973494 152.66221246 89 178 C88.5565625 179.06605469 88.113125 180.13210938 87.65625 181.23046875 C85.8402495 185.47614483 83.72124828 189.54536217 81.5625 193.625 C80.98918945 194.73101562 80.98918945 194.73101562 80.40429688 195.859375 C78.26064526 199.9210307 76.02832314 203.50949543 73 207 C74.66463038 211.28642324 77.79075837 214.08617217 81 217.25 C81.81984375 218.08144531 81.81984375 218.08144531 82.65625 218.9296875 C85.32600768 221.99215775 85.32600768 221.99215775 89 223 C89.7425 222.030625 90.485 221.06125 91.25 220.0625 C93.14270869 217.74918938 94.05609544 216.97439121 96.875 215.6875 C101.1835812 216.11835812 102.69209368 218.17889872 105.484375 221.3359375 C106.91541427 223.10775838 106.91541427 223.10775838 109 224 C108.98839844 223.14535156 108.97679687 222.29070312 108.96484375 221.41015625 C108.95130859 219.75306641 108.95130859 219.75306641 108.9375 218.0625 C108.92589844 216.96035156 108.91429687 215.85820312 108.90234375 214.72265625 C109 212 109 212 110 211 C113.63953196 210.72929101 117.27243524 210.55354483 120.91796875 210.39453125 C124.77473093 210.57300905 124.77473093 210.57300905 128 209 C128.10756847 207.2375228 128.14625675 205.47079768 128.15771484 203.70507812 C128.16797699 202.57299927 128.17823914 201.44092041 128.18881226 200.27453613 C128.19611359 199.03925171 128.20341492 197.80396729 128.2109375 196.53125 C128.23902334 193.93228555 128.2676879 191.33332731 128.296875 188.734375 C128.33918855 184.62438379 128.37593685 180.51442864 128.40136719 176.40429688 C128.42651539 172.44640242 128.4749737 168.48892891 128.5234375 164.53125 C128.52669037 163.31215942 128.52994324 162.09306885 128.53329468 160.83703613 C128.66364713 151.73090693 129.86277561 144.25774425 135.375 136.8125 C135.98214844 135.98621094 136.58929688 135.15992188 137.21484375 134.30859375 C139.40854203 131.47166665 141.64857758 128.70769855 144 126 C143.13375 125.38125 142.2675 124.7625 141.375 124.125 C133.78311357 117.75355867 129.63385842 107.68537306 128.71220398 97.96458435 C128.59329806 94.6000532 128.55892874 91.24552384 128.55859375 87.87890625 C128.53878197 86.04633522 128.53878197 86.04633522 128.51856995 84.17674255 C128.47792749 80.3053043 128.4560567 76.43410244 128.4375 72.5625 C128.41371579 68.66597415 128.3856682 64.7696708 128.34571838 60.87327576 C128.32134565 58.45608808 128.30649994 56.03878179 128.30210876 53.62147522 C128.28682884 51.98848732 128.28682884 51.98848732 128.27124023 50.32250977 C128.26696518 49.36449966 128.26269012 48.40648956 128.25828552 47.41944885 C128.16116044 44.7398936 128.16116044 44.7398936 126 42 C123.04839957 41.61411212 120.33317348 41.39721507 117.375 41.3125 C114.61125 41.209375 111.8475 41.10625 109 41 C109 35.39 109 29.78 109 24 C112.50132114 23.86417289 115.99730117 23.7654863 119.5 23.6875 C120.48226563 23.64560547 121.46453125 23.60371094 122.4765625 23.56054688 C130.57423773 23.42558562 135.0218387 25.51334898 141.0234375 30.7734375 C141.46945312 31.30195313 141.91546875 31.83046875 142.375 32.375 C143.06722656 33.16003906 143.06722656 33.16003906 143.7734375 33.9609375 C147.83477648 40.7125902 147.26497865 48.18493262 147.23828125 55.80078125 C147.25370036 58.33008349 147.27000395 60.85938047 147.28710938 63.38867188 C147.30354899 67.35159987 147.31249707 71.31414035 147.30541992 75.27709961 C147.30279077 79.11876642 147.33098516 82.9592703 147.36328125 86.80078125 C147.34797112 88.56063103 147.34797112 88.56063103 147.33235168 90.35603333 C147.42109471 97.87818203 148.60580429 103.76482666 153 110 C158.64184694 115.36628603 164.14475711 116.1707433 171.6015625 116.71875 C174 117 174 117 175 118 C175.09986975 120.84335048 175.13877881 123.65697163 175.125 126.5 C175.12886719 127.29792969 175.13273437 128.09585938 175.13671875 128.91796875 C175.12660767 134.87339233 175.12660767 134.87339233 174 136 C172.33468883 136.10705572 170.66748827 136.18515323 169 136.25 C163.08162138 136.75025307 158.69704847 138.3402164 154 142 C151.52351923 144.92043703 151.52351923 144.92043703 150 148 C149.64304047 148.60435379 149.28608093 149.20870758 148.91830444 149.83137512 C147.76498888 152.55499129 147.74837126 154.67950086 147.74462891 157.63549805 C147.73766998 158.76735031 147.73071106 159.89920258 147.72354126 161.06535339 C147.72503677 162.89505424 147.72503677 162.89505424 147.7265625 164.76171875 C147.70626692 167.35091573 147.68541601 169.9401084 147.6640625 172.52929688 C147.63937846 176.60636154 147.62416188 180.68336298 147.61914062 184.76049805 C147.61312269 188.69863529 147.57576974 192.63624684 147.5390625 196.57421875 C147.54410797 197.78389816 147.54915344 198.99357758 147.55435181 200.23991394 C147.44321772 209.8558819 145.3584288 217.42516631 138.671875 224.55859375 C131.93279256 230.36869052 123.40755814 229.31882594 115 229 C115 229.99 115 230.98 115 232 C115.56805359 232.24240921 116.13610718 232.48481842 116.72137451 232.73457336 C119.44023711 234.24448413 121.26873372 236.03624965 123.45800781 238.24682617 C124.33281799 239.12501511 125.20762817 240.00320404 126.10894775 240.90800476 C127.05703228 241.86963434 128.00509069 242.83128966 128.953125 243.79296875 C129.93664029 244.78276285 130.92067811 245.77203797 131.9052124 246.76081848 C134.49729697 249.36619572 137.08376597 251.97707066 139.66864014 254.58959961 C143.78971214 258.75377673 147.91736256 262.91140215 152.04854584 267.06554604 C153.47992998 268.50702207 154.90777159 269.951936 156.33526611 271.39726257 C160.85810409 275.95338615 165.42110231 280.3804026 170.30654907 284.54760742 C180.03685429 292.89282891 191.13283828 303.18412843 192.21484375 316.6796875 C192.5609028 327.55978395 190.13368295 336.61310248 183 345 C176.11937074 351.40513862 169.04079884 354.57071077 159.6875 354.4375 C158.56710327 354.42614014 158.56710327 354.42614014 157.42407227 354.41455078 C144.13751466 354.01991482 135.24448219 346.59475199 126.25195312 337.46313477 C125.62965317 336.83952057 125.00735321 336.21590637 124.36619568 335.57339478 C122.3332152 333.53398314 120.30732053 331.48768062 118.28125 329.44140625 C116.85504776 328.00892221 115.42832153 326.57695969 114.00109863 325.14549255 C110.25826344 321.38941054 106.52104626 317.62779335 102.78546143 313.86450195 C96.80905325 307.84484083 90.8258728 301.83193084 84.83934021 295.82234001 C82.76093025 293.73379224 80.6860158 291.64181921 78.6114502 289.54945374 C70.2748983 281.13727031 70.2748983 281.13727031 61.45837402 273.23524475 C59.49464164 271.57196079 57.72456803 269.78320259 56 267.875 C55.4225 267.25367188 54.845 266.63234375 54.25 265.9921875 C52.62866525 263.40818524 52.51160297 262.00082404 53 259 C54.53125 256.98046875 54.53125 256.98046875 56.5 255.1875 C57.1496875 254.58292969 57.799375 253.97835938 58.46875 253.35546875 C58.9740625 252.90816406 59.479375 252.46085937 60 252 C58.37849996 248.02685079 55.64417127 245.20699562 52.6875 242.1875 C52.21376953 241.67251953 51.74003906 241.15753906 51.25195312 240.62695312 C49.67906757 238.95102352 49.67906757 238.95102352 47 237 C42.9037648 236.9620719 40.14869181 238.95515895 36.8125 241.1875 C35.84570312 241.81785156 34.87890625 242.44820312 33.8828125 243.09765625 C32.10562799 244.27040538 30.32938158 245.4445793 28.5546875 246.62109375 C21.74074912 250.950081 14.71033267 253.6869002 7 256 C6.15083008 256.26377441 5.30166016 256.52754883 4.42675781 256.79931641 C-28.45144852 266.74551968 -64.56339976 264.09931049 -95.125 248.125 C-102.88060929 243.9491479 -110.21907385 239.64902503 -117 234 C-117.53351074 233.57283691 -118.06702148 233.14567383 -118.61669922 232.70556641 C-144.85527899 211.69571558 -163.87871393 179.89483745 -167.75390625 146.13671875 C-170.66107753 105.02101063 -160.65558596 70.3694841 -133.73828125 39 C-128.4156063 33.07880714 -122.83482635 27.80836635 -116.4375 23.0625 C-115.74422607 22.54671387 -115.05095215 22.03092773 -114.33666992 21.49951172 C-107.83613928 16.74584582 -101.14627621 12.71539419 -94 9 C-93.00226563 8.46890625 -92.00453125 7.9378125 -90.9765625 7.390625 C-63.73438545 -6.19544787 -29.17500433 -8.43572827 0 0 Z M-90 17 C-91.16660156 17.58394531 -92.33320313 18.16789062 -93.53515625 18.76953125 C-122.10964179 34.07153873 -144.38238877 60.51489403 -154.10131836 91.43579102 C-154.75370061 93.61875339 -155.37983141 95.80770404 -156 98 C-156.3403125 99.12664062 -156.680625 100.25328125 -157.03125 101.4140625 C-164.79910292 132.12585136 -157.72743527 166.03077121 -142 193 C-123.36389084 223.18794395 -93.87372404 243.35920593 -59.59375 251.62109375 C-52.05779771 253.19135495 -44.79526711 253.45785066 -37.1315918 253.39111328 C-34.9354064 253.37498462 -32.7410532 253.39108709 -30.54492188 253.41015625 C-21.64903137 253.42406612 -13.60267922 252.47750083 -5 250 C-3.79404175 249.66355469 -3.79404175 249.66355469 -2.5637207 249.3203125 C30.04248938 239.80340873 56.88276802 219.06008038 73.98046875 189.5859375 C89.71591691 159.36554037 94.00371142 125.0148121 84.05004883 92.23510742 C73.31754481 58.80127911 49.91275012 32.31710768 18.875 16.125 C12.39512538 13.02656051 5.92551087 10.85247421 -1 9 C-2.24257568 8.65936523 -3.48515137 8.31873047 -4.76538086 7.96777344 C-15.02711434 5.27749648 -24.66277045 4.30889951 -35.25 4.4375 C-36.00769684 4.44175995 -36.76539368 4.4460199 -37.54605103 4.45040894 C-56.46882743 4.5977404 -73.10158792 8.40383159 -90 17 Z " fill="#2C2B38" transform="translate(338,138)"/>
<path d="M0 0 C1.14337326 0.00164658 1.14337326 0.00164658 2.30984497 0.00332642 C19.70408403 0.07493946 36.29614585 2.59421883 52 10.5 C52.57766113 10.78214355 53.15532227 11.06428711 53.75048828 11.35498047 C82.69995061 25.57009207 106.73057079 50.42276493 117.89599609 80.94970703 C129.44159258 115.01344939 127.06521093 149.51738257 111.625 181.875 C108.31766689 188.22798712 104.41622112 193.87548717 100 199.5 C99.04287109 200.76263672 99.04287109 200.76263672 98.06640625 202.05078125 C79.29708367 226.33382837 52.82781295 241.1507412 23 247.5 C21.90594849 247.75583862 21.90594849 247.75583862 20.78979492 248.0168457 C2.4036536 251.20107373 -19.49221473 249.6800737 -37 243.5 C-37.81984375 243.21060547 -38.6396875 242.92121094 -39.484375 242.62304688 C-54.17504549 237.25091504 -67.01499868 229.55335276 -79 219.5 C-79.78632813 218.84773437 -80.57265625 218.19546875 -81.3828125 217.5234375 C-104.13972561 197.90540895 -120.47570464 168.6477554 -123 138.5 C-125.04691069 101.04370034 -116.46977656 69.85127687 -91.625 41.375 C-75.2865345 23.70797416 -54.51201791 9.52660209 -31 3.5 C-29.52732666 3.11376465 -29.52732666 3.11376465 -28.02490234 2.71972656 C-18.59376616 0.45453007 -9.63895063 -0.05736767 0 0 Z M-64 58.5 C-64.68707031 59.11230469 -65.37414062 59.72460938 -66.08203125 60.35546875 C-81.84044522 74.93277872 -90.99245569 97.88735035 -92.203125 119.05078125 C-92.53520196 145.69995737 -84.44014391 169.2941688 -65.73828125 188.72265625 C-64.83464844 189.63917969 -63.93101562 190.55570313 -63 191.5 C-61.93845703 192.58087891 -61.93845703 192.58087891 -60.85546875 193.68359375 C-49.48604846 204.48780386 -35.91046211 211.13968081 -21 215.5 C-20.11054688 215.76554688 -19.22109375 216.03109375 -18.3046875 216.3046875 C4.48251841 221.9435554 30.66533554 215.35573214 50.29248047 203.58691406 C71.67345483 189.97694869 86.05808076 168.65892823 91.53735352 144.09057617 C96.77177925 118.17935347 91.97192481 93.40255842 77.54614258 71.45068359 C63.85772484 51.48541534 43.55135802 38.27876335 20.125 32.6875 C-11.83364244 26.94286799 -40.59067595 36.12402472 -64 58.5 Z " fill="#BEBCD2" transform="translate(302,142.5)"/>
<path d="M0 0 C1.14337326 0.00164658 1.14337326 0.00164658 2.30984497 0.00332642 C19.70408403 0.07493946 36.29614585 2.59421883 52 10.5 C52.57766113 10.78214355 53.15532227 11.06428711 53.75048828 11.35498047 C63.53991268 16.16190085 74.96027136 21.93499682 82 30.5 C82 31.49 82 32.48 82 33.5 C80.50390625 34.78125 80.50390625 34.78125 78.5625 36 C75.40503705 37.96619621 75.40503705 37.96619621 74 41.5 C71.56643171 43.86596917 69.98925377 45.37753611 66.5703125 45.80078125 C63.446449 45.43522276 62.44329917 44.58553821 60.125 42.5 C40.14207416 26.1080159 13.21934034 21.38201626 -12 23.5 C-17.51360231 24.2716031 -22.71561129 25.74617902 -28 27.5 C-29.12664062 27.87382812 -30.25328125 28.24765625 -31.4140625 28.6328125 C-58.99091367 38.57100946 -79.33636085 57.54697239 -91.82421875 83.7890625 C-93.48941548 87.62841975 -94.86475207 91.47365399 -96 95.5 C-96.19335938 96.16515625 -96.38671875 96.8303125 -96.5859375 97.515625 C-103.40239473 122.60809075 -99.52479228 151.57712491 -87.02636719 174.19458008 C-79.37871868 187.31389819 -69.19191647 198.48433432 -57 207.5 C-57.57273517 210.99750278 -58.71809494 212.50836926 -61.3125 214.875 C-64.45360734 217.86745411 -66.74589651 220.80327028 -69 224.5 C-79.5025191 223.32462783 -89.15632613 211.11668464 -95.53759766 203.24243164 C-118.06098529 174.66766276 -126.32120842 141.59867707 -122.69970703 105.50732422 C-117.96194957 72.92241655 -98.78996194 44.11312985 -73.0078125 24.1875 C-60.22806616 15.00902882 -46.30938877 7.42410361 -31 3.5 C-29.52732666 3.11376465 -29.52732666 3.11376465 -28.02490234 2.71972656 C-18.59376616 0.45453007 -9.63895063 -0.05736767 0 0 Z " fill="#D1D8D7" transform="translate(302,142.5)"/>
<path d="M0 0 C4.74801636 3.0051884 8.93269815 6.48284373 13.04589844 10.29492188 C13.95597656 11.11347656 14.86605469 11.93203125 15.80371094 12.77539062 C31.51111032 27.58584938 40.76388149 46.32224747 45.04589844 67.29492188 C45.23925781 68.20371094 45.43261719 69.1125 45.63183594 70.04882812 C49.23539954 98.29940692 42.41412269 126.40762032 25.10839844 149.10742188 C21.16062778 154.14511398 17.03466287 159.24766445 12.04589844 163.29492188 C11.38589844 163.29492188 10.72589844 163.29492188 10.04589844 163.29492188 C10.04589844 163.95492187 10.04589844 164.61492187 10.04589844 165.29492188 C7.892567 166.96566272 5.75525027 168.48697638 3.48339844 169.98242188 C2.80809082 170.4279541 2.1327832 170.87348633 1.43701172 171.33251953 C-20.91752302 185.73624131 -47.94874502 192.42346898 -74.23510742 186.75683594 C-82.79761642 184.71173637 -91.0732394 182.27925748 -98.95410156 178.29492188 C-100.04464844 177.75480469 -101.13519531 177.2146875 -102.25878906 176.65820312 C-126.75222823 163.64776829 -144.47699542 141.61428317 -152.80175781 115.28710938 C-160.01612663 90.94076688 -157.54592839 61.98113165 -145.70410156 39.48242188 C-132.67369858 15.65779422 -111.87238673 -3.125926 -85.70898438 -11.41650391 C-81.16368241 -12.70345055 -76.57738063 -13.73435405 -71.95410156 -14.70507812 C-71.00361938 -14.96768433 -71.00361938 -14.96768433 -70.03393555 -15.2355957 C-46.36783919 -20.57776066 -19.98499822 -12.0733571 0 0 Z M-119.95410156 20.29492188 C-120.64117187 20.90722656 -121.32824219 21.51953125 -122.03613281 22.15039062 C-137.79454678 36.72770059 -146.94655725 59.68227222 -148.15722656 80.84570312 C-148.48930352 107.49487925 -140.39424547 131.08909067 -121.69238281 150.51757812 C-120.78875 151.43410156 -119.88511719 152.350625 -118.95410156 153.29492188 C-117.89255859 154.37580078 -117.89255859 154.37580078 -116.80957031 155.47851562 C-105.44015002 166.28272573 -91.86456367 172.93460269 -76.95410156 177.29492188 C-76.06464844 177.56046875 -75.17519531 177.82601562 -74.25878906 178.09960938 C-51.47158316 183.73847728 -25.28876603 177.15065402 -5.66162109 165.38183594 C15.71935327 151.77187056 30.10397919 130.4538501 35.58325195 105.88549805 C40.81767768 79.97427534 36.01782325 55.1974803 21.59204102 33.24560547 C7.90362328 13.28033721 -12.40274354 0.07368523 -35.82910156 -5.51757812 C-67.78774401 -11.26221013 -96.54477751 -2.08105341 -119.95410156 20.29492188 Z " fill="#2A2C37" transform="translate(357.9541015625,180.705078125)"/>
<path d="M0 0 C4.18167326 1.63256246 6.94467643 4.7086575 10.015625 7.85546875 C10.59028503 8.43533035 11.16494507 9.01519196 11.75701904 9.61262512 C13.59284019 11.4662186 15.42185415 13.3263386 17.25 15.1875 C26.87471717 25.04310833 26.87471717 25.04310833 37.05957031 34.30639648 C41.29351397 38.00177483 45.25553686 41.98748563 49.25 45.9375 C50.13429688 46.79279297 51.01859375 47.64808594 51.9296875 48.52929688 C58.62818765 55.16202625 64.01581799 61.78764912 64.3125 71.625 C64.21792337 79.73494625 60.73381344 86.3965005 55 92 C49.25953485 96.58380426 42.80427193 96.73495506 35.671875 96.48828125 C25.44296872 95.12805435 19.0619484 87.43907779 12.2734375 80.31640625 C10.0497694 78.00847887 7.74648231 75.8802977 5.30908203 73.80029297 C0.94523469 70.00509351 -3.14570166 65.98188286 -7.21875 61.87890625 C-8.33376892 60.76176491 -8.33376892 60.76176491 -9.47131348 59.62205505 C-11.81659301 57.27123255 -14.15834836 54.91693569 -16.5 52.5625 C-18.10132961 50.95614801 -19.70288998 49.35002603 -21.3046875 47.74414062 C-25.20579473 43.83208015 -29.1040242 39.91717048 -33 36 C-29.97755229 29.64196811 -25.4624572 25.4305849 -20.19140625 20.9296875 C-15.62215533 16.90614034 -10.93323373 12.68068925 -7.36328125 7.73046875 C-6.91339844 7.15941406 -6.46351563 6.58835937 -6 6 C-5.34 6 -4.68 6 -4 6 C-3.566875 5.071875 -3.566875 5.071875 -3.125 4.125 C-2 2 -2 2 0 0 Z " fill="#DD9289" transform="translate(457,387)"/>
<path d="M0 0 C0.93457031 0.00322266 1.86914062 0.00644531 2.83203125 0.00976562 C3.80011719 0.01814453 4.76820313 0.02652344 5.765625 0.03515625 C6.74917969 0.03966797 7.73273438 0.04417969 8.74609375 0.04882812 C11.16929694 0.06059125 13.59246877 0.07852607 16.015625 0.09765625 C16.015625 5.70765625 16.015625 11.31765625 16.015625 17.09765625 C7.640625 17.47265625 7.640625 17.47265625 5.00634766 17.57568359 C0.54018682 17.6455671 0.54018682 17.6455671 -2.984375 20.09765625 C-3.28814498 22.479163 -3.28814498 22.479163 -3.23974609 25.27490234 C-3.25018448 26.89832047 -3.25018448 26.89832047 -3.26083374 28.55453491 C-3.25983673 29.73149933 -3.25883972 30.90846375 -3.2578125 32.12109375 C-3.27812187 34.61198349 -3.298973 37.10286887 -3.3203125 39.59375 C-3.34280908 43.5213589 -3.35933919 47.44879473 -3.36523438 51.37646484 C-3.37482859 55.16666075 -3.40871465 58.95607518 -3.4453125 62.74609375 C-3.44026703 63.90281586 -3.43522156 65.05953796 -3.43002319 66.25131226 C-3.60794464 81.19252554 -9.11981475 92.25002986 -18.984375 103.09765625 C-18.54867187 103.47535156 -18.11296875 103.85304688 -17.6640625 104.2421875 C-10.12990203 111.20557824 -4.53682224 120.52650343 -3.77857971 130.91802979 C-3.67401881 134.35112082 -3.62940111 137.78024282 -3.60546875 141.21484375 C-3.58847427 142.467742 -3.5714798 143.72064026 -3.55397034 145.01150513 C-3.50997696 148.32199088 -3.47359478 151.63243259 -3.44177246 154.9430542 C-3.39584135 159.62816817 -3.34021565 164.31313856 -3.27906799 168.99807739 C-3.24702616 171.48977515 -3.22016287 173.98154564 -3.19883728 176.47335815 C-3.18534744 177.59187164 -3.1718576 178.71038513 -3.15795898 179.86279297 C-3.14369118 181.34669022 -3.14369118 181.34669022 -3.12913513 182.86056519 C-3.23334986 185.06867147 -3.23334986 185.06867147 -1.984375 186.09765625 C-0.64422279 186.25347928 0.70321403 186.34809767 2.05078125 186.4140625 C2.77918213 186.45217041 3.50758301 186.49027832 4.25805664 186.52954102 C5.1886792 186.57264404 6.11930176 186.61574707 7.078125 186.66015625 C10.0275 186.80453125 12.976875 186.94890625 16.015625 187.09765625 C16.015625 193.03765625 16.015625 198.97765625 16.015625 205.09765625 C12.5351197 205.23373161 9.0600286 205.3322862 5.578125 205.41015625 C4.11729492 205.47299805 4.11729492 205.47299805 2.62695312 205.53710938 C-4.39574336 205.65454577 -9.3426818 204.38814382 -14.984375 200.09765625 C-22.4770139 192.24542396 -22.26666959 182.63976799 -22.2578125 172.34765625 C-22.27809457 169.85806836 -22.29894522 167.36848506 -22.3203125 164.87890625 C-22.34292477 160.98173126 -22.35939436 157.08473765 -22.36523438 153.1875 C-22.37477089 149.40722485 -22.40855251 145.62775116 -22.4453125 141.84765625 C-22.44026703 140.68911133 -22.43522156 139.53056641 -22.43002319 138.33691406 C-22.52369705 130.60515778 -23.4984209 125.05757779 -28.765625 119.07421875 C-29.61640625 118.40519531 -29.61640625 118.40519531 -30.484375 117.72265625 C-31.0515625 117.26117188 -31.61875 116.7996875 -32.203125 116.32421875 C-36.05948318 113.66874404 -38.97648999 112.82979323 -43.671875 112.53515625 C-48.88522486 112.19680639 -48.88522486 112.19680639 -49.984375 111.09765625 C-50.07069374 109.75498212 -50.09143973 108.40791303 -50.08203125 107.0625 C-50.07880859 106.25361328 -50.07558594 105.44472656 -50.07226562 104.61132812 C-50.06388672 103.76119141 -50.05550781 102.91105469 -50.046875 102.03515625 C-50.04236328 101.18115234 -50.03785156 100.32714844 -50.03320312 99.44726562 C-50.02137873 97.33069962 -50.00344269 95.2141694 -49.984375 93.09765625 C-48.85902344 93.09378906 -48.85902344 93.09378906 -47.7109375 93.08984375 C-40.1237284 92.80317338 -33.51978675 91.633068 -27.984375 86.09765625 C-22.83922788 78.42803437 -22.30658349 71.57496002 -22.453125 62.53125 C-22.44986206 61.25717789 -22.44659912 59.98310577 -22.4432373 58.67042542 C-22.43344694 54.62488076 -22.45390698 50.58053917 -22.484375 46.53515625 C-22.52451783 41.20012698 -22.52929899 35.86649133 -22.515625 30.53125 C-22.53524292 29.31851913 -22.55486084 28.10578827 -22.57507324 26.85630798 C-22.54827381 18.07568114 -20.71414175 12.32055789 -14.88671875 5.72265625 C-14.23832031 5.18640625 -13.58992188 4.65015625 -12.921875 4.09765625 C-11.94541016 3.26234375 -11.94541016 3.26234375 -10.94921875 2.41015625 C-7.46299225 0.08138467 -4.1156665 -0.02509553 0 0 Z " fill="#2F2E3A" transform="translate(145.984375,161.90234375)"/>
<path d="M0 0 C3.96 0 7.92 0 12 0 C10.35036206 8.58158895 7.5492528 16.73373851 4.765625 24.99609375 C4.24437364 26.55423409 3.72352775 28.11251011 3.20306396 29.6709137 C1.83500076 33.76370361 0.46155694 37.85466754 -0.91308594 41.94525146 C-2.29159771 46.05032521 -3.66516421 50.15705227 -5.0390625 54.26367188 C-7.07244403 60.340037 -9.10870447 66.41542663 -11.14746094 72.48999023 C-14.11144706 81.32228156 -17.05685912 90.16074423 -20 99 C-23.96 99 -27.92 99 -32 99 C-30.60539793 90.36551931 -27.86644507 82.33800903 -24.97827148 74.11743164 C-23.50457034 69.92065124 -22.05285988 65.71628968 -20.6015625 61.51171875 C-20.15342194 60.21474564 -20.15342194 60.21474564 -19.69622803 58.89157104 C-15.99195477 48.13141445 -12.51431938 37.29819789 -9.04736328 26.4597168 C-6.19901576 17.5743729 -3.20177277 8.76493978 0 0 Z " fill="#2C2B38" transform="translate(312,220)"/>
<path d="M0 0 C0.21711618 1.89072007 0.37173245 3.78868215 0.5 5.6875 C0.5928125 6.74324219 0.685625 7.79898438 0.78125 8.88671875 C-0.09020111 12.35945144 -0.37192077 12.63628055 -3.22265625 14.4765625 C-4.80015153 15.34542689 -6.39494342 16.18317073 -8 17 C-8.98532715 17.51957275 -9.9706543 18.03914551 -10.98583984 18.57446289 C-15.443317 20.90363457 -19.9283258 23.17696325 -24.41601562 25.44726562 C-25.50462891 26.00478516 -26.59324219 26.56230469 -27.71484375 27.13671875 C-28.70605225 27.63905029 -29.69726074 28.14138184 -30.71850586 28.65893555 C-33.12403054 29.79434289 -33.12403054 29.79434289 -34 32 C-33.18015625 32.24105469 -32.3603125 32.48210937 -31.515625 32.73046875 C-27.35570411 34.23266241 -23.62641782 36.20092715 -19.75 38.3125 C-18.24529336 39.12202697 -16.74008652 39.9306249 -15.234375 40.73828125 C-14.51056641 41.12709473 -13.78675781 41.5159082 -13.04101562 41.91650391 C-9.6272102 43.7287609 -6.16270765 45.43435844 -2.6875 47.125 C-1 48 -1 48 0 49 C0.07244053 51.01964199 0.08377188 53.04167124 0.0625 55.0625 C0.05347656 56.16722656 0.04445313 57.27195312 0.03515625 58.41015625 C0.02355469 59.26480469 0.01195312 60.11945313 0 61 C-3.5425814 60.41276687 -6.40462264 59.48181856 -9.60668945 57.86694336 C-10.9274926 57.20637184 -10.9274926 57.20637184 -12.27497864 56.53245544 C-13.2116185 56.05639359 -14.14825836 55.58033173 -15.11328125 55.08984375 C-16.08283249 54.60294571 -17.05238373 54.11604767 -18.05131531 53.61439514 C-21.14124299 52.06104851 -24.22688858 50.49940014 -27.3125 48.9375 C-29.40922819 47.88161118 -31.50623031 46.82626615 -33.60351562 45.77148438 C-38.73887013 43.18728644 -43.87073584 40.59626351 -49 38 C-49.10131429 35.90073043 -49.17401825 33.80006486 -49.234375 31.69921875 C-49.27788086 30.52963623 -49.32138672 29.36005371 -49.36621094 28.1550293 C-49 25 -49 25 -47.28295898 23.0690918 C-44.62234254 21.4245388 -41.87276879 20.24175672 -39 19 C-36.65720445 17.84790953 -34.3305414 16.66610122 -32.00244141 15.48461914 C-29.41726151 14.17726517 -26.82107885 12.8940812 -24.22265625 11.61328125 C-18.48247933 8.76508556 -12.83098929 5.75870662 -7.20483398 2.69213867 C-2.21126221 0 -2.21126221 0 0 0 Z " fill="#2D2D37" transform="translate(277,237)"/>
<path d="M0 0 C3.9111658 1.30372193 7.06189003 2.41055877 10.62841797 4.24658203 C11.91907669 4.90704025 11.91907669 4.90704025 13.23580933 5.58084106 C14.60021652 6.28719193 14.60021652 6.28719193 15.9921875 7.0078125 C16.93812775 7.49329559 17.88406799 7.97877869 18.8586731 8.47897339 C21.86618291 10.02366593 24.87061456 11.57424087 27.875 13.125 C29.91907025 14.17617138 31.96333894 15.226957 34.0078125 16.27734375 C39.00751814 18.84709917 44.00447227 21.42213292 49 24 C49 28.29 49 32.58 49 37 C38.34854087 42.69302126 27.63018946 48.24729971 16.83850098 53.66937256 C15.57031788 54.30688437 14.30282059 54.94576226 13.03601074 55.58599854 C11.24353576 56.49115206 9.44800043 57.39023741 7.65234375 58.2890625 C6.61070068 58.81193848 5.56905762 59.33481445 4.49584961 59.87353516 C2 61 2 61 0 61 C0 56.71 0 52.42 0 48 C1.46050781 47.27554688 2.92101562 46.55109375 4.42578125 45.8046875 C18.84830896 38.66068497 18.84830896 38.66068497 33 31 C29.78966678 28.42414306 26.42993442 26.560279 22.7734375 24.6796875 C22.18454742 24.37555939 21.59565735 24.07143127 20.98892212 23.75808716 C19.11937273 22.79359943 17.24724264 21.83424732 15.375 20.875 C14.10920243 20.22299117 12.8435756 19.57065074 11.578125 18.91796875 C5.8010649 15.93539108 5.8010649 15.93539108 0 13 C0 8.71 0 4.42 0 0 Z " fill="#2E2C37" transform="translate(329,237)"/>
<path d="M0 0 C4.22897154 1.94586331 7.03527128 4.63275948 10.3125 7.875 C10.87517578 8.40480469 11.43785156 8.93460937 12.01757812 9.48046875 C13.61328125 11.0546875 13.61328125 11.0546875 16 14 C15.725183 17.3843209 14.30962141 19.05872708 11.94897461 21.39160156 C11.30838608 22.0319635 10.66779755 22.67232544 10.00779724 23.33209229 C9.31299759 24.01140808 8.61819794 24.69072388 7.90234375 25.390625 C7.19348526 26.09523865 6.48462677 26.79985229 5.75428772 27.52581787 C3.4889672 29.77434785 1.21343792 32.01222238 -1.0625 34.25 C-2.60029335 35.77274708 -4.13741131 37.29617654 -5.67382812 38.8203125 C-9.44141802 42.5548281 -13.21744265 46.2806485 -17 50 C-19.79570164 48.65272739 -21.83967803 47.40293767 -24.015625 45.1796875 C-24.54414063 44.64472656 -25.07265625 44.10976563 -25.6171875 43.55859375 C-26.15601563 43.00300781 -26.69484375 42.44742188 -27.25 41.875 C-27.80429687 41.31167969 -28.35859375 40.74835938 -28.9296875 40.16796875 C-30.29104485 38.78313972 -31.64614859 37.39216796 -33 36 C-30.56141629 30.84572079 -27.21187843 26.88363359 -22.8125 23.3125 C-19.87245245 21.12328275 -19.87245245 21.12328275 -18 18 C-17.34 18 -16.68 18 -16 18 C-15.73719238 17.4112207 -15.47438477 16.82244141 -15.20361328 16.21582031 C-13.94383819 13.89660759 -12.61995979 12.39050597 -10.7421875 10.546875 C-10.11699219 9.928125 -9.49179687 9.309375 -8.84765625 8.671875 C-8.19667969 8.03765625 -7.54570312 7.4034375 -6.875 6.75 C-6.21628906 6.1003125 -5.55757813 5.450625 -4.87890625 4.78125 C-3.25703357 3.18288273 -1.6306719 1.58938103 0 0 Z " fill="#BCBCD0" transform="translate(435,365)"/>
<path d="M0 0 C1.1328125 1.66796875 1.1328125 1.66796875 0.8828125 4.79296875 C0.1328125 7.66796875 0.1328125 7.66796875 -0.8671875 8.66796875 C-2.792167 8.7634749 -4.71771133 8.85245471 -6.64428711 8.90698242 C-28.58986639 9.57604141 -45.1736883 18.25556785 -60.43359375 33.77734375 C-65.84920886 40.2100166 -69.91777995 47.80779762 -72.8671875 55.66796875 C-75.1932732 56.04860096 -77.52774014 56.3806682 -79.8671875 56.66796875 C-80.8671875 55.66796875 -80.8671875 55.66796875 -81.3046875 52.85546875 C-81.05693219 39.42162532 -67.61057115 26.89474302 -58.71484375 18.20703125 C-48.23176227 8.85997643 -14.62036618 -10.43001018 0 0 Z " fill="#2D2D37" transform="translate(308.8671875,187.33203125)"/>
<path d="M0 0 C4.32504836 1.65863505 7.09418825 4.871041 10.25 8.125 C10.80429687 8.68832031 11.35859375 9.25164062 11.9296875 9.83203125 C13.29104485 11.21686028 14.64614859 12.60783204 16 14 C14.41043716 17.81316478 11.99239303 20.372784 9.125 23.3125 C8.26132812 24.21613281 7.39765625 25.11976563 6.5078125 26.05078125 C4 28 4 28 2.03393555 27.78320312 C-1.41070738 26.45678199 -3.75414907 23.7579902 -6.3125 21.1875 C-6.87517578 20.65318359 -7.43785156 20.11886719 -8.01757812 19.56835938 C-9.61328125 17.98046875 -9.61328125 17.98046875 -12 15 C-11.56962244 10.54537596 -8.52225859 8.18456435 -5.4375 5.25 C-4.91736328 4.74339844 -4.39722656 4.23679687 -3.86132812 3.71484375 C-2.58089916 2.46965595 -1.29132446 1.23388498 0 0 Z " fill="#B9B6C7" transform="translate(403,354)"/>
<path d="M0 0 C2.13393169 3.20089754 2.24865924 4.01089783 2.23046875 7.68359375 C2.22917969 8.60640137 2.22789062 9.52920898 2.2265625 10.47998047 C2.21367187 11.45596191 2.20078125 12.43194336 2.1875 13.4375 C2.18105469 14.42637207 2.17460937 15.41524414 2.16796875 16.43408203 C2.0955724 23.32870358 1.80948658 30.14827433 1 37 C0.01 36.34 -0.98 35.68 -2 35 C-2.20839044 32.46086632 -2.23204579 30.18432243 -2.109375 27.65625 C-2.08530579 26.93135376 -2.06123657 26.20645752 -2.03643799 25.45959473 C-1.98275153 23.9260849 -1.92174279 22.39281666 -1.85400391 20.85986328 C-1.75042993 18.50975524 -1.66813079 16.15966692 -1.58984375 13.80859375 C-1.53509579 12.32026631 -1.47914652 10.83198247 -1.421875 9.34375 C-1.39575134 8.63851196 -1.36962769 7.93327393 -1.3427124 7.20666504 C-1.11750773 2.23501546 -1.11750773 2.23501546 0 0 Z " fill="#37363C" transform="translate(434,251)"/>
<path d="M0 0 C0.66 0.33 1.32 0.66 2 1 C2.07312341 14.21705635 1.84953869 27.41290681 1.5 40.625 C1.451614 42.51822384 1.40343591 44.411453 1.35546875 46.3046875 C1.23936407 50.86985631 1.12048721 55.43494484 1 60 C0.67 60 0.34 60 0 60 C-0.15360914 52.32473491 -0.30179086 44.64938155 -0.4429636 36.97387791 C-0.50868172 33.41017974 -0.57629855 29.84653832 -0.64819336 26.28295898 C-0.73068566 22.19003366 -0.80502956 18.09699621 -0.87890625 14.00390625 C-0.90594131 12.71851456 -0.93297638 11.43312286 -0.96083069 10.10877991 C-0.98092697 8.92763107 -1.00102325 7.74648224 -1.02172852 6.52954102 C-1.04171402 5.48363297 -1.06169952 4.43772491 -1.08229065 3.36012268 C-1 1 -1 1 0 0 Z " fill="#383642" transform="translate(468,288)"/>
<path d="M0 0 C0.99 0.33 1.98 0.66 3 1 C3 4.3 3 7.6 3 11 C3.66 11.33 4.32 11.66 5 12 C5 12.66 5 13.32 5 14 C5.84820312 14.25523437 6.69640625 14.51046875 7.5703125 14.7734375 C11.23752093 16.08494484 14.46574557 17.74643123 17.875 19.625 C19.02742188 20.25664062 20.17984375 20.88828125 21.3671875 21.5390625 C22.67042969 22.26222656 22.67042969 22.26222656 24 23 C23.34 23.33 22.68 23.66 22 24 C19.75341797 23.10375977 19.75341797 23.10375977 16.9921875 21.69140625 C16.00605469 21.19189453 15.01992187 20.69238281 14.00390625 20.17773438 C12.97136719 19.64470703 11.93882812 19.11167969 10.875 18.5625 C9.31458984 17.76875977 9.31458984 17.76875977 7.72265625 16.95898438 C5.14481475 15.64641371 2.57193712 14.32410272 0 13 C0 8.71 0 4.42 0 0 Z " fill="#242529" transform="translate(228,262)"/>
<path d="M0 0 C1.18851562 0.00902344 2.37703125 0.01804688 3.6015625 0.02734375 C4.51679688 0.03894531 5.43203125 0.05054688 6.375 0.0625 C6.705 1.0525 7.035 2.0425 7.375 3.0625 C2.425 3.0625 -2.525 3.0625 -7.625 3.0625 C-7.955 2.4025 -8.285 1.7425 -8.625 1.0625 C-5.74084117 -0.37957941 -3.20778472 -0.03144887 0 0 Z " fill="#36393E" transform="translate(300.625,185.9375)"/>
<path d="M0 0 C1.02158203 0.00322266 2.04316406 0.00644531 3.09570312 0.00976562 C4.15080078 0.01814453 5.20589844 0.02652344 6.29296875 0.03515625 C7.36740234 0.03966797 8.44183594 0.04417969 9.54882812 0.04882812 C12.19276558 0.06057896 14.83658827 0.07700838 17.48046875 0.09765625 C17.48046875 0.42765625 17.48046875 0.75765625 17.48046875 1.09765625 C16.54195068 1.13524048 16.54195068 1.13524048 15.58447266 1.17358398 C12.75792256 1.28940898 9.93171706 1.4121961 7.10546875 1.53515625 C5.62820313 1.59413086 5.62820313 1.59413086 4.12109375 1.65429688 C2.70957031 1.71713867 2.70957031 1.71713867 1.26953125 1.78125 C0.40021973 1.81790771 -0.4690918 1.85456543 -1.36474609 1.89233398 C-3.56785745 1.97167169 -3.56785745 1.97167169 -5.51953125 3.09765625 C-7.19607854 2.8182317 -8.86561279 2.48937378 -10.51953125 2.09765625 C-10.51953125 1.76765625 -10.51953125 1.43765625 -10.51953125 1.09765625 C-6.94603084 0.27867003 -3.66293646 -0.02046333 0 0 Z " fill="#B7BCBF" transform="translate(296.51953125,173.90234375)"/>
<path d="M0 0 C3.21043882 1.38188453 5.04936365 2.92421903 7.25 5.625 C8.03117187 6.57246094 8.03117187 6.57246094 8.828125 7.5390625 C9.40820312 8.26222656 9.40820312 8.26222656 10 9 C7 9 7 9 5.17578125 7.5390625 C4.56089844 6.90742188 3.94601562 6.27578125 3.3125 5.625 C2.68988281 4.99851562 2.06726563 4.37203125 1.42578125 3.7265625 C0 2 0 2 0 0 Z " fill="#27252F" transform="translate(407,416)"/>
<path d="M0 0 C0 0.66 0 1.32 0 2 C-6.93 1.67 -13.86 1.34 -21 1 C-21 0.67 -21 0.34 -21 0 C-18.06281233 -0.19461488 -15.12550068 -0.38097593 -12.1875 -0.5625 C-11.35412109 -0.61857422 -10.52074219 -0.67464844 -9.66210938 -0.73242188 C-8.85966797 -0.78076172 -8.05722656 -0.82910156 -7.23046875 -0.87890625 C-6.49207764 -0.9260376 -5.75368652 -0.97316895 -4.99291992 -1.02172852 C-3 -1 -3 -1 0 0 Z " fill="#3B3A41" transform="translate(469,163)"/>
<path d="M0 0 C0.66 0 1.32 0 2 0 C2 3.96 2 7.92 2 12 C1.01 12.495 1.01 12.495 0 13 C-0.19397476 11.02145742 -0.38001321 9.0421352 -0.5625 7.0625 C-0.66691406 5.96035156 -0.77132813 4.85820312 -0.87890625 3.72265625 C-0.91886719 2.82417969 -0.95882813 1.92570313 -1 1 C-0.67 0.67 -0.34 0.34 0 0 Z " fill="#37363C" transform="translate(275,237)"/>
<path d="M0 0 C0.66 0.33 1.32 0.66 2 1 C0.47291037 4.43595166 -1.59927045 7.11912454 -4 10 C-4.25 7.25 -4.25 7.25 -4 4 C-2 1.625 -2 1.625 0 0 Z " fill="#3B3A40" transform="translate(432,355)"/>
<path d="M0 0 C-3.79692186 2.82561627 -6.18569279 4.56638908 -11 4 C-3.77464789 -1.88732394 -3.77464789 -1.88732394 0 0 Z " fill="#CFCFD5" transform="translate(281,200)"/>
<path d="M0 0 C0.33 0 0.66 0 1 0 C1.28571429 7.42857143 1.28571429 7.42857143 -1 11 C-2.0257259 6.58937864 -2.03684712 4.07369424 0 0 Z " fill="#1C1A27" transform="translate(433,284)"/>
<path d="M0 0 C0.99 0.33 1.98 0.66 3 1 C2.34 1 1.68 1 1 1 C0.67 2.65 0.34 4.3 0 6 C-0.99 6.33 -1.98 6.66 -3 7 C-1.125 2.25 -1.125 2.25 0 0 Z " fill="#26242D" transform="translate(475,272)"/>
</svg>
